<mxfile host="y7k">
  <diagram id="ddp" name="PgMargin-default">
    <mxGraphModel dx="0" dy="0" background="#000000" grid="0" gridSize="10" guides="1" tooltips="1" connect="1" arrows="1" fold="1" page="1" pageScale="1" pageWidth="1169" pageHeight="827" math="0" shadow="0">
      <root>
        <mxCell id="page_root_ddp" parent="ddp"/>
        <mxCell id="node_root_ddp" parent="page_root_ddp"/>
        <mxCell id="ddp-2" value="Page Margin 50, 50 (Default)" style="whiteSpace=wrap;html=1;fillColor=#f5f5f5;strokeColor=#666666;fontColor=#333333" vertex="1" parent="node_root_ddp">
          <mxGeometry x="80" y="80" width="160" height="160" as="geometry"/>
        </mxCell>
        <mxCell id="ddp-3" value="" style="whiteSpace=wrap;html=1;fillColor=#f5f5f5;strokeColor=#666666;fontColor=#333333;ellipse" vertex="1" parent="node_root_ddp">
          <mxGeometry x="300" y="80" width="160" height="160" as="geometry"/>
        </mxCell>
        <mxCell id="ddp-4" value="" style="whiteSpace=wrap;html=1;fillColor=#f5f5f5;strokeColor=#666666;fontColor=#333333" vertex="1" parent="node_root_ddp">
          <mxGeometry x="520" y="80" width="160" height="160" as="geometry"/>
        </mxCell>
        <mxCell id="ddp-5" value="" style="whiteSpace=wrap;html=1;fillColor=#f5f5f5;strokeColor=#666666;fontColor=#333333;ellipse" vertex="1" parent="node_root_ddp">
          <mxGeometry x="740" y="80" width="160" height="160" as="geometry"/>
        </mxCell>
        <mxCell id="ddp-6" value="" style="whiteSpace=wrap;html=1;fillColor=#f5f5f5;strokeColor=#666666;fontColor=#333333" vertex="1" parent="node_root_ddp">
          <mxGeometry x="80" y="300" width="160" height="160" as="geometry"/>
        </mxCell>
        <mxCell id="ddp-7" value="" style="whiteSpace=wrap;html=1;fillColor=#f5f5f5;strokeColor=#666666;fontColor=#333333;ellipse" vertex="1" parent="node_root_ddp">
          <mxGeometry x="300" y="300" width="160" height="160" as="geometry"/>
        </mxCell>
        <mxCell id="ddp-8" value="" style="whiteSpace=wrap;html=1;fillColor=#f5f5f5;strokeColor=#666666;fontColor=#333333" vertex="1" parent="node_root_ddp">
          <mxGeometry x="520" y="300" width="160" height="160" as="geometry"/>
        </mxCell>
        <mxCell id="ddp-9" value="" style="whiteSpace=wrap;html=1;fillColor=#f5f5f5;strokeColor=#666666;fontColor=#333333;ellipse" vertex="1" parent="node_root_ddp">
          <mxGeometry x="740" y="300" width="160" height="160" as="geometry"/>
        </mxCell>
      </root>
    </mxGraphModel>
  </diagram>
  <diagram id="UgP" name="PgMargin-0-0">
    <mxGraphModel dx="0" dy="0" background="#000000" grid="0" gridSize="10" guides="1" tooltips="1" connect="1" arrows="1" fold="1" page="1" pageScale="1" pageWidth="1169" pageHeight="827" math="0" shadow="0">
      <root>
        <mxCell id="page_root_UgP" parent="UgP"/>
        <mxCell id="node_root_UgP" parent="page_root_UgP"/>
        <mxCell id="UgP-2" value="Page Margin 0, 0" style="whiteSpace=wrap;html=1;fillColor=#f5f5f5;strokeColor=#666666;fontColor=#333333" vertex="1" parent="node_root_UgP">
          <mxGeometry x="30" y="30" width="160" height="160" as="geometry"/>
        </mxCell>
        <mxCell id="UgP-3" value="" style="whiteSpace=wrap;html=1;fillColor=#f5f5f5;strokeColor=#666666;fontColor=#333333;ellipse" vertex="1" parent="node_root_UgP">
          <mxGeometry x="250" y="30" width="160" height="160" as="geometry"/>
        </mxCell>
        <mxCell id="UgP-4" value="" style="whiteSpace=wrap;html=1;fillColor=#f5f5f5;strokeColor=#666666;fontColor=#333333" vertex="1" parent="node_root_UgP">
          <mxGeometry x="470" y="30" width="160" height="160" as="geometry"/>
        </mxCell>
        <mxCell id="UgP-5" value="" style="whiteSpace=wrap;html=1;fillColor=#f5f5f5;strokeColor=#666666;fontColor=#333333;ellipse" vertex="1" parent="node_root_UgP">
          <mxGeometry x="690" y="30" width="160" height="160" as="geometry"/>
        </mxCell>
        <mxCell id="UgP-6" value="" style="whiteSpace=wrap;html=1;fillColor=#f5f5f5;strokeColor=#666666;fontColor=#333333" vertex="1" parent="node_root_UgP">
          <mxGeometry x="30" y="250" width="160" height="160" as="geometry"/>
        </mxCell>
        <mxCell id="UgP-7" value="" style="whiteSpace=wrap;html=1;fillColor=#f5f5f5;strokeColor=#666666;fontColor=#333333;ellipse" vertex="1" parent="node_root_UgP">
          <mxGeometry x="250" y="250" width="160" height="160" as="geometry"/>
        </mxCell>
        <mxCell id="UgP-8" value="" style="whiteSpace=wrap;html=1;fillColor=#f5f5f5;strokeColor=#666666;fontColor=#333333" vertex="1" parent="node_root_UgP">
          <mxGeometry x="470" y="250" width="160" height="160" as="geometry"/>
        </mxCell>
        <mxCell id="UgP-9" value="" style="whiteSpace=wrap;html=1;fillColor=#f5f5f5;strokeColor=#666666;fontColor=#333333;ellipse" vertex="1" parent="node_root_UgP">
          <mxGeometry x="690" y="250" width="160" height="160" as="geometry"/>
        </mxCell>
      </root>
    </mxGraphModel>
  </diagram>
  <diagram id="AFP" name="PgMargin-90-70">
    <mxGraphModel dx="0" dy="0" background="#000000" grid="0" gridSize="10" guides="1" tooltips="1" connect="1" arrows="1" fold="1" page="1" pageScale="1" pageWidth="1169" pageHeight="827" math="0" shadow="0">
      <root>
        <mxCell id="page_root_AFP" parent="AFP"/>
        <mxCell id="node_root_AFP" parent="page_root_AFP"/>
        <mxCell id="AFP-2" value="Page Margin 90, 70" style="whiteSpace=wrap;html=1;fillColor=#f5f5f5;strokeColor=#666666;fontColor=#333333" vertex="1" parent="node_root_AFP">
          <mxGeometry x="120" y="100" width="160" height="160" as="geometry"/>
        </mxCell>
        <mxCell id="AFP-3" value="" style="whiteSpace=wrap;html=1;fillColor=#f5f5f5;strokeColor=#666666;fontColor=#333333;ellipse" vertex="1" parent="node_root_AFP">
          <mxGeometry x="340" y="100" width="160" height="160" as="geometry"/>
        </mxCell>
        <mxCell id="AFP-4" value="" style="whiteSpace=wrap;html=1;fillColor=#f5f5f5;strokeColor=#666666;fontColor=#333333" vertex="1" parent="node_root_AFP">
          <mxGeometry x="560" y="100" width="160" height="160" as="geometry"/>
        </mxCell>
        <mxCell id="AFP-5" value="" style="whiteSpace=wrap;html=1;fillColor=#f5f5f5;strokeColor=#666666;fontColor=#333333;ellipse" vertex="1" parent="node_root_AFP">
          <mxGeometry x="780" y="100" width="160" height="160" as="geometry"/>
        </mxCell>
        <mxCell id="AFP-6" value="" style="whiteSpace=wrap;html=1;fillColor=#f5f5f5;strokeColor=#666666;fontColor=#333333" vertex="1" parent="node_root_AFP">
          <mxGeometry x="120" y="320" width="160" height="160" as="geometry"/>
        </mxCell>
        <mxCell id="AFP-7" value="" style="whiteSpace=wrap;html=1;fillColor=#f5f5f5;strokeColor=#666666;fontColor=#333333;ellipse" vertex="1" parent="node_root_AFP">
          <mxGeometry x="340" y="320" width="160" height="160" as="geometry"/>
        </mxCell>
        <mxCell id="AFP-8" value="" style="whiteSpace=wrap;html=1;fillColor=#f5f5f5;strokeColor=#666666;fontColor=#333333" vertex="1" parent="node_root_AFP">
          <mxGeometry x="560" y="320" width="160" height="160" as="geometry"/>
        </mxCell>
        <mxCell id="AFP-9" value="" style="whiteSpace=wrap;html=1;fillColor=#f5f5f5;strokeColor=#666666;fontColor=#333333;ellipse" vertex="1" parent="node_root_AFP">
          <mxGeometry x="780" y="320" width="160" height="160" as="geometry"/>
        </mxCell>
      </root>
    </mxGraphModel>
  </diagram>
</mxfile>